<?xml version="1.0" encoding="UTF-8"?>
<svg width="134px" height="22px" viewBox="0 0 134 22" version="1.1" xmlns="http://www.w3.org/2000/svg" xmlns:xlink="http://www.w3.org/1999/xlink">
    <!-- Generator: Sketch 48.2 (47327) - http://www.bohemiancoding.com/sketch -->
    <title>Asset 1</title>
    <desc>Created with Sketch.</desc>
    <defs>
        <linearGradient x1="0%" y1="12%" x2="1380%" y2="12%" id="linearGradient-1">
            <stop stop-color="#00984A" offset="0%"></stop>
            <stop stop-color="#8DC63F" offset="50%"></stop>
            <stop stop-color="#009D48" offset="100%"></stop>
        </linearGradient>
        <linearGradient x1="0%" y1="49.382716%" x2="100.438276%" y2="49.382716%" id="linearGradient-2">
            <stop stop-color="#00974A" offset="0%"></stop>
            <stop stop-color="#1CA149" offset="10%"></stop>
            <stop stop-color="#4BB046" offset="28%"></stop>
            <stop stop-color="#67BA45" offset="42%"></stop>
            <stop stop-color="#72BE44" offset="50%"></stop>
            <stop stop-color="#63B945" offset="59%"></stop>
            <stop stop-color="#3CAC47" offset="77%"></stop>
            <stop stop-color="#00974A" offset="100%"></stop>
        </linearGradient>
        <linearGradient x1="23.3286917%" y1="65.0337838%" x2="80.6835851%" y2="32.4324324%" id="linearGradient-3">
            <stop stop-color="#E5A812" offset="8%"></stop>
            <stop stop-color="#E9B20E" offset="17%"></stop>
            <stop stop-color="#F2C904" offset="41%"></stop>
            <stop stop-color="#F5D200" offset="56%"></stop>
            <stop stop-color="#BB9E4B" offset="90%"></stop>
        </linearGradient>
        <linearGradient x1="0.662251656%" y1="49.5232159%" x2="100%" y2="49.5232159%" id="linearGradient-4">
            <stop stop-color="#E5A812" offset="14%"></stop>
            <stop stop-color="#E9B20E" offset="23%"></stop>
            <stop stop-color="#F2C904" offset="49%"></stop>
            <stop stop-color="#F5D200" offset="65%"></stop>
            <stop stop-color="#BB9E4B" offset="100%"></stop>
        </linearGradient>
        <linearGradient x1="715%" y1="1591%" x2="970%" y2="1591%" id="linearGradient-5">
            <stop stop-color="#E5A812" offset="14%"></stop>
            <stop stop-color="#E9B20E" offset="23%"></stop>
            <stop stop-color="#F2C904" offset="49%"></stop>
            <stop stop-color="#F5D200" offset="65%"></stop>
            <stop stop-color="#BB9E4B" offset="100%"></stop>
        </linearGradient>
        <linearGradient x1="628%" y1="1548%" x2="925%" y2="1548%" id="linearGradient-6">
            <stop stop-color="#E5A812" offset="14%"></stop>
            <stop stop-color="#E9B20E" offset="23%"></stop>
            <stop stop-color="#F2C904" offset="49%"></stop>
            <stop stop-color="#F5D200" offset="65%"></stop>
            <stop stop-color="#BB9E4B" offset="100%"></stop>
        </linearGradient>
    </defs>
    <g id="Page-1" stroke="none" stroke-width="1" fill="none" fill-rule="evenodd">
        <g id="Asset-1">
            <path d="M13.74,1 C13.74,1 6.22,0.41 0,3.78 L0,6.47 L13.75,6.47 L13.74,1 Z" id="Shape" fill="#0088CF" fill-rule="nonzero"></path>
            <path d="M0,13.5 C0,13.43 0,13.34 0,13.25 C0,13.3366667 0,13.42 0,13.5 Z" id="Shape" fill="url(#linearGradient-1)" fill-rule="nonzero"></path>
            <path d="M6.5,21 C6.64717454,21.0388377 6.79798233,21.0622967 6.95,21.07 C7.105158,21.060846 7.25914237,21.0374136 7.41,21 C10.836131,20.1908893 13.3635155,17.2852021 13.69,13.78 L0,13.78 C0.35,17.07 2.39,19.8 6.5,21 Z" id="Shape" fill="url(#linearGradient-2)" fill-rule="nonzero"></path>
            <path d="M13.75,6.47 L0,6.47 L0,12.89 C0,13 0,13 0,13.13 L0,13.25 C0,13.34 0,13.42 0,13.5 L0,13.74 L13.7,13.74 C13.7,13.5 13.7,12.99 13.7,12.92 L13.7,6.47 L13.75,6.47 Z" id="Shape" fill="#00427A" fill-rule="nonzero"></path>
            <path d="M3.1,10.27 C3.57034034,10.3401847 4.03536607,10.1136337 4.27,9.7 C4.3640698,9.47900144 4.40844877,9.24003772 4.4,9 L4.4,7.42 C4.4,7.24 4.4,7.12 4.56,7.11 L4.56,7 L3.68,7 L3.68,7.13 C3.85,7.13 3.85,7.27 3.85,7.44 L3.85,8.94 C3.87867341,9.23129277 3.80820466,9.52373809 3.65,9.77 C3.51095392,9.92599658 3.30870297,10.0105743 3.1,10 C2.87588325,10.0128418 2.65952844,9.91585518 2.52,9.74 C2.36179534,9.49373809 2.29132659,9.20129277 2.32,8.91 L2.32,7.42 C2.32,7.24 2.32,7.12 2.49,7.11 L2.49,7 L1.6,7 L1.6,7.13 C1.76,7.13 1.76,7.26 1.76,7.44 L1.76,9 C1.75332771,9.23666308 1.79766477,9.47199052 1.89,9.69 C2.12176347,10.1074885 2.58740794,10.3383209 3.06,10.27 L3.1,10.27 Z" id="Shape" fill="#FFFFFF" fill-rule="nonzero"></path>
            <path d="M5.75,7.39 C5.46234937,7.72982857 5.31249561,8.16511806 5.33,8.61 C5.30555929,9.07147768 5.46360162,9.52405343 5.77,9.87 C6.11337273,10.1564251 6.5538339,10.2996645 7,10.27 C7.3451415,10.2682187 7.68597823,10.1932346 8,10.05 L8,9.44 C7.9,9.77 7.64,9.98 7,9.98 C6,10 5.9,8.93 5.9,8.6 C5.9,8.27 6,7.17 7,7.17 C7.5,7.17 7.86,7.31 7.92,7.61 L8.04,7.61 L8.04,7.1 L8,7.1 C7.682662,6.97162688 7.34218382,6.91034081 7,6.92 C6.53722199,6.90305156 6.08696791,7.0723471 5.75,7.39 Z" id="Shape" fill="#FFFFFF" fill-rule="nonzero"></path>
            <path d="M11.73,7.38 C11.3683129,7.09298643 10.909708,6.9568381 10.45,7 L9,7 L9,7.1 C9.08152127,7.10501997 9.15747173,7.14306113 9.21031406,7.20533959 C9.26315638,7.26761804 9.28832198,7.34874939 9.28,7.43 L9.28,9.75 C9.28854751,9.82930515 9.26286604,9.90849139 9.20940102,9.96768479 C9.15593601,10.0268782 9.07976313,10.0604593 9,10.06 L9,10.2 L10.36,10.2 C10.7749527,10.2250644 11.1874036,10.120204 11.54,9.9 C11.9654223,9.57863792 12.1958208,9.06118565 12.15,8.53 C12.1725543,8.1054503 12.0208563,7.69008667 11.73,7.38 Z M10.27,9.94 C9.88,9.94 9.83,9.94 9.83,9.56 L9.83,7.46 C9.83,7.26 9.83,7.23 10.33,7.23 C11.18,7.23 11.57,7.67 11.57,8.55 C11.57,9.77 10.92,9.94 10.27,9.94 Z" id="Shape" fill="#FFFFFF" fill-rule="nonzero"></path>
            <path d="M3.4,11 C3.21090661,10.8758086 2.98529012,10.8194045 2.76,10.84 L2.19,10.84 L2.19,12.18 L2.79,12.18 C3.00300792,12.1887381 3.21323388,12.1291741 3.39,12.01 C3.53400739,11.8894063 3.61198894,11.7074493 3.6,11.52 C3.6193522,11.3247872 3.54517723,11.1319323 3.4,11 Z M3.2,11.86 C3.07886854,11.9401366 2.93497686,11.9787417 2.79,11.97 L2.45,11.97 L2.45,11 L2.74,11 C2.90589621,10.983582 3.07227956,11.0260629 3.21,11.12 C3.30197125,11.2123374 3.34939354,11.3400128 3.34,11.47 C3.36280343,11.6174131 3.30570821,11.7658606 3.19,11.86 L3.2,11.86 Z" id="Shape" fill="#FFFFFF" fill-rule="nonzero"></path>
            <path d="M5.45,10.84 L5.22,10.84 L5.22,11.64 C5.22694296,11.7401782 5.19052273,11.8385128 5.12,11.91 C5.03377865,11.982696 4.92244875,12.0186089 4.81,12.01 C4.69780478,12.0165469 4.58722053,11.9808746 4.5,11.91 C4.42464871,11.8410847 4.38426129,11.741952 4.39,11.64 L4.39,10.84 L4.14,10.84 L4.14,11.64 C4.13346834,11.8000039 4.19963055,11.9543823 4.32,12.06 C4.46639996,12.1697637 4.64748592,12.2230243 4.83,12.21 C4.99956014,12.2177887 5.16630019,12.1645737 5.3,12.06 C5.42036945,11.9543823 5.48653166,11.8000039 5.48,11.64 L5.48,10.84 L5.45,10.84 Z" id="Shape" fill="#FFFFFF" fill-rule="nonzero"></path>
            <path d="M7.19,11.55 C7.13314169,11.5118751 7.06800249,11.4878764 7,11.48 C7.04062166,11.4635564 7.0778996,11.4398341 7.11,11.41 C7.16481937,11.3542412 7.19382566,11.2780997 7.19,11.2 C7.19593397,11.0936421 7.14684437,10.9916868 7.06,10.93 C6.93488525,10.8610545 6.79248885,10.8297968 6.65,10.84 L6,10.84 L6,12.18 L6.72,12.18 C6.86364328,12.1889928 7.00662778,12.1541185 7.13,12.08 C7.22617911,12.0152351 7.28272129,11.9059202 7.28,11.79 C7.28740622,11.7005656 7.25438621,11.6125122 7.19,11.55 Z M6.27,11 L6.69,11 C6.76215023,10.9813709 6.83784977,10.9813709 6.91,11 C6.94799972,11.0303618 6.97012508,11.0763604 6.97012508,11.125 C6.97012508,11.1736396 6.94799972,11.2196382 6.91,11.25 C6.85115923,11.2666798 6.78884077,11.2666798 6.73,11.25 L6.27,11.25 L6.27,11 Z M6.95,11.88 C6.87475557,11.9008842 6.79524443,11.9008842 6.72,11.88 L6.27,11.88 L6.27,11.49 L6.71,11.49 C6.79315689,11.4830255 6.87654647,11.5003984 6.95,11.54 C6.99612527,11.5712889 7.02264401,11.6243264 7.02,11.68 C7.04797844,11.7197872 7.05633918,11.770141 7.04272008,11.816835 C7.02910097,11.8635291 6.99498102,11.9014926 6.95,11.92 L6.95,11.88 Z" id="Shape" fill="#FFFFFF" fill-rule="nonzero"></path>
            <polygon id="Shape" fill="#FFFFFF" fill-rule="nonzero" points="8.14 10.84 7.91 10.84 7.91 12.18 9 12.18 9 12 8.17 12 8.17 10.84"></polygon>
            <polygon id="Shape" fill="#FFFFFF" fill-rule="nonzero" points="9.62 10.84 9.4 10.84 9.4 12.18 9.66 12.18 9.66 10.84"></polygon>
            <polygon id="Shape" fill="#FFFFFF" fill-rule="nonzero" points="11.53 10.84 11.3 10.84 11.3 11.84 10.5 10.84 10.18 10.84 10.18 12.18 10.44 12.18 10.44 11.18 11.24 12.18 11.56 12.18 11.56 10.84"></polygon>
            <path d="M11,4.8 C11,4.65364455 10.8813554,4.53500002 10.735,4.53500002 C10.5886446,4.53500002 10.47,4.65364455 10.47,4.8 L10.47,5.45 L11,5.45 L11,4.8 Z" id="Shape"></path>
            <path d="M9.9,3.5 L9.9,3.78 L10.43,3.78 L10.43,3.45 C10.43,3.41134007 10.4613401,3.38 10.5,3.38 L10.9,3.38 C10.9386599,3.38 10.97,3.41134007 10.97,3.45 L10.97,3.77 L11.5,3.77 L11.5,3.45" id="Shape"></path>
            <polygon id="Shape" fill="#231F20" fill-rule="nonzero" points="9.39 4.29 9.36 4.29 9.11 6.1 12.15 6.1 12.14 5.98 9.24 5.98"></polygon>
            <path d="M11.48,3.45 L11.48,3.77 L11,3.77 L11,3.45 C11,3.41134007 10.9686599,3.38 10.93,3.38 L10.53,3.38 C10.4913401,3.38 10.46,3.41134007 10.46,3.45 L10.46,3.77 L9.9,3.77 L9.9,3.45 C9.9,3.45 9.9,3.38 9.84,3.38 L9.44,3.38 C9.40134007,3.38 9.37,3.41134007 9.37,3.45 L9.37,3.77 L9.17,3.77 C9.13134007,3.77 9.1,3.80134007 9.1,3.84 L9.1,4 C9.1240398,4.01673916 9.1559602,4.01673916 9.18,4 L9.25,4 L9.25,4.19 C9.25,4.22865993 9.28134007,4.26 9.32,4.26 L9.4,4.26 L9.24,6 L12.14,6 L12,4.29 L12.08,4.29 C12.1186599,4.29 12.15,4.25865993 12.15,4.22 L12.15,4 L12.22,4 C12.2389862,4.00900593 12.2610138,4.00900593 12.28,4 L12.28,3.84 C12.28,3.82143485 12.272625,3.80363007 12.2594975,3.79050253 C12.2463699,3.77737498 12.2285652,3.77 12.21,3.77 L12,3.77 L12,3.45 C12,3.41134007 11.9686599,3.38 11.93,3.38 L11.54,3.38 C11.49,3.38 11.48,3.41 11.48,3.45 Z M10.42,5.45 L10.42,4.8 C10.42,4.65364454 10.5386445,4.535 10.685,4.535 C10.8313555,4.535 10.95,4.65364454 10.95,4.8 L10.95,5.45 L10.42,5.45 Z" id="Shape" fill="#FFFFFF" fill-rule="nonzero"></path>
            <path d="M11.59,2.75 C11.5319091,2.65843639 11.5319091,2.54156361 11.59,2.45 C11.4628112,2.47095954 11.3464822,2.53441168 11.26,2.63 C11.2481595,2.47983808 11.1845347,2.33844955 11.08,2.23 C11.0029399,2.16351396 10.9586373,2.06677744 10.9586373,1.965 C10.9586373,1.86322256 11.0029399,1.76648604 11.08,1.7 C10.6032177,1.83014513 10.2930185,2.28907007 10.35,2.78 C10.35,2.73 10.29,2.69 10.25,2.63 C10.1645743,2.50668251 10.1645743,2.34331749 10.25,2.22 C9.72,2.5 9.55,2.97 9.83,3.22 C9.89419207,3.28291337 9.98012745,3.31871978 10.07,3.32 C10.1749024,3.29871786 10.2664467,3.23525523 10.3231775,3.14448595 C10.3799083,3.05371667 10.3968385,2.94362019 10.37,2.84 C10.4386983,3.03438684 10.6238556,3.1631919 10.83,3.16 C10.9641542,3.1314952 11.0802219,3.04807155 11.15,2.93 C11.15,3.06 11.24,3.31 11.49,3.22 C11.5758746,3.18036495 11.6380298,3.10255451 11.6577127,3.01004525 C11.6773955,2.91753598 11.6523008,2.82116172 11.59,2.75 Z M10.08,3.13 C10.030011,3.11458032 9.99071705,3.07569691 9.97477326,3.02587256 C9.95882946,2.9760482 9.96824967,2.92157628 10,2.88 C10.0802332,2.80251888 10.1143335,2.68885113 10.09,2.58 C10.1412735,2.65189921 10.1848463,2.72898955 10.22,2.81 C10.23,2.94 10.23,3.12 10.07,3.13 L10.08,3.13 Z M10.81,2.94 C10.5,2.94 10.64,2.25 10.81,2.14 C10.7710227,2.26025381 10.7710227,2.38974619 10.81,2.51 C11,2.74 11,2.92 10.81,2.94 Z M11.44,3.05 C11.33,3.05 11.31,2.79 11.44,2.68 C11.4224725,2.73189327 11.4224725,2.78810673 11.44,2.84 C11.52,3 11.49,3 11.43,3.05 L11.44,3.05 Z" id="Shape" fill="#FFFFFF" fill-rule="nonzero"></path>
            <path d="M6.66,4.95 C6.66,4.82021308 6.55478692,4.715 6.425,4.715 C6.29521308,4.715 6.19,4.82021308 6.19,4.95 L6.19,5.52 L6.66,5.52 L6.66,4.95 Z" id="Shape"></path>
            <path d="M5.72,3.79 L5.72,4 L6.19,4 L6.19,3.75 C6.19,3.71686292 6.21686292,3.69 6.25,3.69 L6.6,3.69 C6.63313708,3.69 6.66,3.71686292 6.66,3.75 L6.66,4 L7.13,4 L7.13,3.75" id="Shape"></path>
            <polygon id="Shape" fill="#231F20" fill-rule="nonzero" points="5.27 4.5 5.24 4.5 5.02 6.1 7.71 6.1 7.71 5.99 5.14 5.99"></polygon>
            <path d="M7.12,3.75 L7.12,4 L6.66,4 L6.66,3.75 C6.66,3.71686292 6.63313708,3.69 6.6,3.69 L6.25,3.69 C6.21686292,3.69 6.19,3.71686292 6.19,3.75 L6.19,4 L5.72,4 L5.72,3.75 C5.72,3.75 5.72,3.69 5.72,3.69 L5.31,3.69 C5.27686292,3.69 5.25,3.71686292 5.25,3.75 L5.25,4 L5.08,4 C5.05238576,3.97790861 5.01209139,3.98238577 4.99,4.01 C4.96790861,4.03761424 4.97238576,4.07790861 5,4.1 L5,4.21 C5,4.24313708 5.02686292,4.27 5.06,4.27 L5.12,4.27 L5.12,4.44 C5.12,4.47313708 5.14686292,4.5 5.18,4.5 L5.25,4.5 L5.14,6 L7.71,6 L7.58,4.5 L7.65,4.5 C7.68313708,4.5 7.71,4.47313708 7.71,4.44 L7.71,4.27 L7.77,4.27 C7.80313708,4.27 7.83,4.24313708 7.83,4.21 L7.83,4.1 C7.84971679,4.08055879 7.85356896,4.05014994 7.83932279,4.02640632 C7.82507663,4.00266271 7.7964325,3.99175164 7.77,4 L7.59,4 L7.59,3.75 C7.59,3.71686292 7.56313708,3.69 7.53,3.69 L7.19,3.69 C7.13,3.69 7.12,3.72 7.12,3.75 Z M6.19,5.52 L6.19,4.95 C6.19,4.82021308 6.29521308,4.715 6.425,4.715 C6.55478692,4.715 6.66,4.82021308 6.66,4.95 L6.66,5.52 L6.19,5.52 Z" id="Shape" fill="#FFFFFF" fill-rule="nonzero"></path>
            <path d="M7.24,3.1 C7.18368112,3.01153631 7.18368112,2.89846369 7.24,2.81 C7.11778141,2.85738929 7.01306193,2.94116488 6.94,3.05 C6.93262036,2.91150355 6.87585616,2.78023634 6.78,2.68 C6.71446359,2.61942816 6.67719807,2.53424107 6.67719807,2.445 C6.67719807,2.35575893 6.71446359,2.27057184 6.78,2.21 C6.41137778,2.29887349 6.14620374,2.62116194 6.13,3 C6.09069641,2.94974724 6.04720769,2.90291323 6,2.86 C5.95552426,2.77903937 5.95552426,2.68096063 6,2.6 C5.53,2.85 5.41,3.28 5.63,3.54 C5.68452506,3.60372753 5.76644301,3.63723941 5.85,3.63 C5.94085276,3.62214871 6.02320217,3.57339984 6.07378604,3.49752403 C6.12436991,3.42164822 6.13769603,3.32688381 6.11,3.24 C6.17140418,3.40539619 6.33391848,3.51103049 6.51,3.5 C6.62661227,3.47410493 6.72768446,3.40191051 6.79,3.3 C6.79,3.42 6.89,3.61 7.07,3.56 C7.25,3.51 7.4,3.34 7.24,3.1 Z M5.89,3.42 C5.84254917,3.41558951 5.80131496,3.38556965 5.7825426,3.34176746 C5.76377023,3.29796527 5.77046909,3.24740266 5.8,3.21 C5.85345459,3.15392474 5.87911852,3.07693296 5.87,3 C5.91872977,3.04871228 5.96229454,3.10233047 6,3.16 C6,3.26 6,3.41 5.89,3.42 Z M6.53,3.31 C6.27,3.31 6.33,2.79 6.53,2.58 C6.51877105,2.6934455 6.53955689,2.8077676 6.59,2.91 C6.7,3.07 6.7,3.31 6.53,3.31 Z M7.1,3.37 C7,3.37 6.98,3.13 7.1,3.03 C7.08323753,3.0785951 7.08323753,3.1314049 7.1,3.18 C7.18,3.29 7.15,3.37 7.1,3.37 Z" id="Shape" fill="#FFFFFF" fill-rule="nonzero"></path>
            <path d="M2.85,5.22 C2.85,5.12058875 2.76941125,5.04 2.67,5.04 C2.57058875,5.04 2.49,5.12058875 2.49,5.22 L2.49,5.66 L2.85,5.66 L2.85,5.22 Z" id="Shape"></path>
            <polyline id="Shape" points="2.13 4.34 2.13 4.53 2.49 4.53 2.49 4.31 2.8 4.31 2.8 4.53 3.2 4.53 3.2 4.31"></polyline>
            <polygon id="Shape" fill="#231F20" fill-rule="nonzero" points="1.79 4.88 1.76 4.88 1.6 6.1 3.65 6.1 3.65 6.02 1.69 6.02"></polygon>
            <path d="M3.2,4.31 L3.2,4.53 L2.85,4.53 L2.85,4.31 L2.53,4.31 L2.53,4.53 L2.13,4.53 L2.13,4.31 C2.13,4.31 2.13,4.31 2.13,4.31 L1.82,4.31 L1.82,4.53 L1.64,4.53 L1.64,4.62 L1.64,4.75 L1.69,4.75 L1.69,6 L3.69,6 L3.59,4.86 L3.6,4.86 L3.6,4.71 L3.6,4.57 L3.56,4.57 L3.56,4.31 L3.25,4.31 C3.25,4.31 3.2,4.29 3.2,4.31 Z M2.49,5.66 L2.49,5.22 C2.49,5.12058875 2.57058875,5.04 2.67,5.04 C2.76941125,5.04 2.85,5.12058875 2.85,5.22 L2.85,5.66 L2.49,5.66 Z" id="Shape" fill="#FFFFFF" fill-rule="nonzero"></path>
            <path d="M3.29,3.8 C3.24428378,3.73014846 3.24428378,3.63985154 3.29,3.57 C3.16920754,3.59219343 3.0636695,3.66497828 3,3.77 C2.99357865,3.67045368 2.95497216,3.57569229 2.89,3.5 C2.84111203,3.45287919 2.81349352,3.38789996 2.81349352,3.32 C2.81349352,3.25210004 2.84111203,3.18712081 2.89,3.14 C2.57932418,3.20016245 2.36381241,3.484638 2.39,3.8 C2.39,3.8 2.39,3.8 2.34,3.71 C2.29368405,3.61888118 2.29368405,3.51111882 2.34,3.42 C1.89,3.62 1.82,3.98 2.01,4.14 C2.05910305,4.19145613 2.12925004,4.21729976 2.2,4.21 C2.26892563,4.19877143 2.32954226,4.15807834 2.36603499,4.09853757 C2.40252772,4.0389968 2.41127695,3.96651401 2.39,3.9 C2.43386229,4.0334132 2.55958622,4.12263663 2.7,4.12 C2.755396,4.14636337 2.81928404,4.14839832 2.87624549,4.12561373 C2.93320695,4.10282915 2.97806729,4.05729486 3,4 C3,4.09 3.16,4.3 3.3,4.14 C3.34389057,4.09365132 3.36750913,4.03172744 3.36563251,3.96792257 C3.3637559,3.90411771 3.33653874,3.84368899 3.29,3.8 Z M2.29,4.05 C2.25392191,4.04650288 2.22256081,4.02375651 2.20803225,3.99054839 C2.1935037,3.95734027 2.1980826,3.91887015 2.22,3.89 C2.26876937,3.83978137 2.28773308,3.76771927 2.27,3.7 C2.30137185,3.74381596 2.32817811,3.79072692 2.35,3.84 C2.34,3.93 2.34,4 2.24,4.05 L2.29,4.05 Z M2.79,3.9 C2.6,3.9 2.69,3.49 2.79,3.42 C2.76704364,3.49153676 2.76704364,3.56846324 2.79,3.64 C2.86,3.79 2.84,3.89 2.75,3.91 L2.79,3.9 Z M3.18,4 C3.1,4 3.08,3.81 3.18,3.73 C3.16627417,3.76882251 3.16627417,3.81117749 3.18,3.85 C3.25,4 3.22,4 3.18,4 Z" id="Shape" fill="#FFFFFF" fill-rule="nonzero"></path>
            <path d="M7.19,20.18 C4.95418674,19.1084964 3.66531963,16.7166176 4,14.26 L3.9,14.18 C3.51627261,16.6999954 4.82283663,19.1751633 7.12,20.28 L7.19,20.18 Z" id="Shape" fill="#231F20" fill-rule="nonzero"></path>
            <path d="M5.17,14.68 C4.74528778,14.6678334 4.33548606,14.5207251 4,14.26 C3.65863203,16.7070102 4.92979477,19.0959891 7.15,20.18 L7.31,19.76 C5.53,18.46 5.09,16.78 5.17,14.68 Z" id="Shape" fill="url(#linearGradient-3)" fill-rule="nonzero"></path>
            <path d="M9.76,14.14 C8.89168433,13.6510882 7.85078266,13.5741201 6.92,13.93 C5.76,14.3 4.77,14.41 3.92,13.62 L3.92,13.74 C4.79,14.53 5.73,14.37 6.92,14.05 C7.85935676,13.6660102 8.92214106,13.7285269 9.81,14.22 L9.76,14.14 Z" id="Shape" fill="#231F20" fill-rule="nonzero"></path>
            <path d="M9.76,14.14 L9.91,13.74 C9.12000167,13.0295059 8.01312264,12.7898723 7,13.11 C6.21854636,13.4456366 5.3169451,13.3348466 4.64,12.82 C4.28605449,12.9720655 4.00843282,13.2605036 3.87,13.62 C4.74,14.41 5.72,14.3 6.87,13.93 C7.81534729,13.558208 8.87833162,13.635449 9.76,14.14 Z" id="Shape" fill="url(#linearGradient-4)" fill-rule="nonzero"></path>
            <path d="M9.7,14.36 L7.88,19.59 C7.62075817,19.4578879 7.37320227,19.3040018 7.14,19.13 L7.09,19.25 C7.35433794,19.4470356 7.63935224,19.6146911 7.94,19.75 L9.75,14.38 L9.7,14.36 Z" id="Shape" fill="#231F20" fill-rule="nonzero"></path>
            <path d="M9.38,14.23 L7.15,19.14 C7.38320227,19.3140018 7.63075817,19.4678879 7.89,19.6 L9.7,14.36 L9.38,14.23 Z" id="Shape" fill="url(#linearGradient-5)" fill-rule="nonzero"></path>
            <polygon id="Shape" fill="#231F20" fill-rule="nonzero" points="5.44 14.68 5.34 14.68 6.86 17.27 6.92 17.18"></polygon>
            <polygon id="Shape" fill="#FFFFFF" fill-rule="nonzero" points="7.13 16.85 5.82 14.63 5.44 14.68 5.44 14.68 6.91 17.19"></polygon>
            <polygon id="Shape" fill="#231F20" fill-rule="nonzero" points="6.3 14.5 6.21 14.5 7.36 16.5 7.42 16.41"></polygon>
            <polygon id="Shape" fill="#FFFFFF" fill-rule="nonzero" points="7.64 16.08 6.64 14.39 6.3 14.5 6.3 14.5 7.42 16.41"></polygon>
            <polygon id="Shape" fill="#000000" fill-rule="nonzero" points="7.34 14.13 7.34 14.14 7.34 14.13"></polygon>
            <polygon id="Shape" fill="#231F20" fill-rule="nonzero" points="7.09 14.22 7.01 14.22 7.87 15.7 7.93 15.61"></polygon>
            <polygon id="Shape" fill="#FFFFFF" fill-rule="nonzero" points="8.14 15.31 7.43 14.1 7.34 14.1 7.34 14.1 7.13 14.17 7.13 14.17 7.96 15.59"></polygon>
            <polygon id="Shape" fill="#231F20" fill-rule="nonzero" points="7.91 14 7.81 14 8.38 15 8.44 14.91"></polygon>
            <polygon id="Shape" fill="#FFFFFF" fill-rule="nonzero" points="8.65 14.54 8.29 13.92 8.07 13.92 7.92 13.92 7.92 13.92 8.45 14.81"></polygon>
            <path d="M9.25,14.19 L6.83,18.84 C6.61341778,18.6348218 6.42811106,18.3989769 6.28,18.14 L6.22,18.23 C6.38780022,18.5243843 6.60033705,18.7908987 6.85,19.02 L9.31,14.2 L9.25,14.19 Z" id="Shape" fill="#231F20" fill-rule="nonzero"></path>
            <path d="M8.93,14.12 L6.28,18.12 C6.42811106,18.3789769 6.61341778,18.6148218 6.83,18.82 L9.26,14.17 L8.93,14.12 Z" id="Shape" fill="url(#linearGradient-6)" fill-rule="nonzero"></path>
            <path d="M24.45,13 C23.8446369,13.5540604 23.0387291,13.8359475 22.22,13.78 C21.4475606,13.8334909 20.6843529,13.5862545 20.09,13.09 C19.6008214,12.5424545 19.3490447,11.8230924 19.39,11.09 L19.39,6.5 L20.53,6.5 L20.53,11 C20.5065366,11.4968212 20.6747882,11.9836769 21,12.36 C21.333502,12.6895815 21.7921241,12.8606548 22.26,12.83 C22.7563872,12.8726449 23.2474193,12.7016929 23.61,12.36 C23.8999688,12.0033636 24.0398314,11.5479137 24,11.09 L24,6.5 L25.15,6.5 L25.15,11.1 C25.1709243,11.7999886 24.9200618,12.480901 24.45,13 Z" id="Shape" fill="#00427A" fill-rule="nonzero"></path>
            <path d="M30,13.71 L30,10.61 C30,10.05 29.89,9.42 29.19,9.42 C28.6629766,9.45282693 28.160988,9.65643068 27.76,10 L27.76,13.67 L26.62,13.67 L26.62,8.53 L27.62,8.53 L27.75,9.11 C28.2628604,8.66781954 28.913049,8.41693153 29.59,8.4 C30.36,8.4 31.17,8.9 31.17,10.25 L31.17,13.71 L30,13.71 Z" id="Shape" fill="#00427A" fill-rule="nonzero"></path>
            <path d="M33.82,6.92 C33.8281368,7.21784803 33.6544398,7.49074789 33.3811576,7.6094766 C33.1078754,7.7282053 32.7898636,7.6689306 32.5777065,7.45972013 C32.3655494,7.25050966 32.301833,6.93335794 32.4167282,6.65844203 C32.5316233,6.38352611 32.8020673,6.20602949 33.1,6.21 C33.2900303,6.20732325 33.4732013,6.28094325 33.6085228,6.41438531 C33.7438443,6.54782737 33.8200189,6.72995081 33.82,6.92 Z M32.53,13.7 L32.53,8.53 L33.67,8.53 L33.67,13.71 L32.53,13.7 Z" id="Shape" fill="#00427A" fill-rule="nonzero"></path>
            <polygon id="Shape" fill="#00427A" fill-rule="nonzero" points="37.46 13.74 36.62 13.74 34.54 8.53 35.71 8.53 37.06 12.26 37.06 12.26 38.49 8.53 39.59 8.53"></polygon>
            <path d="M41.08,11.39 C41.0738472,11.7975942 41.2372221,12.1894422 41.5310994,12.4719436 C41.8249767,12.754445 42.222966,12.902231 42.63,12.88 C43.0873268,12.8755212 43.535515,12.7514076 43.93,12.52 L44.23,13.26 C43.6973027,13.6256638 43.0661235,13.8209458 42.42,13.82 C41.7077111,13.8354351 41.0231876,13.5437884 40.5408974,13.0193936 C40.0586073,12.4949988 39.8251398,11.7885123 39.9,11.08 C39.8246017,10.41921 40.0256267,9.75663615 40.4554831,9.24914054 C40.8853395,8.74164492 41.5058099,8.43434753 42.17,8.4 C43.55,8.4 44.4,9.46 44.4,11.07 L44.4,11.39 L41.08,11.39 Z M42.15,9.29 C41.8383174,9.31032024 41.5479997,9.45547513 41.3447287,9.69262459 C41.1414577,9.92977405 41.0424121,10.2388765 41.07,10.55 L43.23,10.55 C43.2604541,10.2382632 43.1624352,9.92759181 42.9585937,9.6897768 C42.7547523,9.4519618 42.462727,9.30758159 42.15,9.29 Z" id="Shape" fill="#00427A" fill-rule="nonzero"></path>
            <path d="M48.21,9.6 C48.0338045,9.50875499 47.8384186,9.46076547 47.64,9.46 C47.2350957,9.50339623 46.8608186,9.69588163 46.59,10 L46.59,13.73 L45.45,13.73 L45.45,8.53 L46.45,8.53 L46.58,9.1 C46.9418818,8.68772826 47.4526123,8.43595968 48,8.4 C48.2412982,8.39908374 48.4776212,8.4685905 48.68,8.6 L48.21,9.6 Z" id="Shape" fill="#00427A" fill-rule="nonzero"></path>
            <path d="M50.43,13.82 C49.8023053,13.8348859 49.1827475,13.6756699 48.64,13.36 L49.02,12.52 C49.4211831,12.7939566 49.8942447,12.9435275 50.38,12.95 C50.95,12.95 51.38,12.72 51.38,12.33 C51.38,11.33 49.01,11.68 49.01,9.89 C49.01,9.05 49.67,8.41 50.88,8.41 C51.3798203,8.40152304 51.8762682,8.49333189 52.34,8.68 L52.34,9.68 C51.9014063,9.4737057 51.4245555,9.36130515 50.94,9.35 C50.46,9.35 50.13,9.5 50.13,9.86 C50.13,10.79 52.55,10.52 52.55,12.27 C52.49,13.37 51.54,13.82 50.43,13.82 Z" id="Shape" fill="#00427A" fill-rule="nonzero"></path>
            <path d="M54.93,6.92 C54.9381368,7.21784803 54.7644398,7.49074789 54.4911576,7.6094766 C54.2178754,7.7282053 53.8998636,7.6689306 53.6877065,7.45972013 C53.4755494,7.25050966 53.411833,6.93335794 53.5267282,6.65844203 C53.6416233,6.38352611 53.9120673,6.20602949 54.21,6.21 C54.4000303,6.20732325 54.5832013,6.28094325 54.7185228,6.41438531 C54.8538443,6.54782737 54.9300189,6.72995081 54.93,6.92 Z M53.64,13.7 L53.64,8.53 L54.78,8.53 L54.78,13.71 L53.64,13.7 Z" id="Shape" fill="#00427A" fill-rule="nonzero"></path>
            <path d="M57.87,13.82 C57.5454473,13.8607337 57.2199209,13.752182 56.9847729,13.5248075 C56.749625,13.297433 56.6301956,12.9757383 56.66,12.65 L56.66,9.42 L55.76,9.42 L55.76,8.53 L56.66,8.53 L56.66,7.36 L57.79,7 L57.79,8.53 L59.4,8.53 L59,9.42 L57.79,9.42 L57.79,12.24 C57.79,12.64 57.95,12.84 58.29,12.84 C58.6080803,12.8205513 58.9137232,12.7094084 59.17,12.52 L59.49,13.26 C59.0187605,13.6056329 58.45409,13.8008276 57.87,13.82 Z" id="Shape" fill="#00427A" fill-rule="nonzero"></path>
            <path d="M63.08,14 C62.35,16 61.53,16.3 60.63,16.3 C60.2408961,16.3085439 59.8548068,16.2299593 59.5,16.07 L59.78,15.19 C60.0255617,15.321943 60.301335,15.3874391 60.58,15.38 C61.15,15.38 61.66,14.95 62.06,13.71 L59.7,8.53 L60.91,8.53 L62.61,12.39 L63.91,8.53 L65.05,8.53 L63.08,14 Z" id="Shape" fill="#00427A" fill-rule="nonzero"></path>
            <path d="M71.83,13.82 C70.8587165,13.8677309 69.9132603,13.4985037 69.2313843,12.8051675 C68.5495082,12.1118314 68.1960888,11.1603532 68.26,10.19 C68.2312248,9.1763506 68.6254395,8.19641906 69.3481547,7.4850852 C70.0708699,6.77375135 71.056935,6.39513981 72.07,6.44 C72.713147,6.42180133 73.3511935,6.55901562 73.93,6.84 L73.93,7.93 C73.3853734,7.57725896 72.7488406,7.39290794 72.1,7.4 C71.3862549,7.37515534 70.6957221,7.65553504 70.2013303,8.17092423 C69.7069384,8.68631343 69.4555065,9.38790465 69.51,10.1 C69.4447192,10.7974272 69.6786314,11.4897738 70.1535125,12.0047052 C70.6283936,12.5196365 71.2995785,12.8087204 72,12.8 C72.6105304,12.7938457 73.2094038,12.632081 73.74,12.33 L74.07,13.18 C73.3964482,13.5953853 72.6213325,13.816847 71.83,13.82 Z" id="Shape" fill="#00427A" fill-rule="nonzero"></path>
            <path d="M78.84,9.13 C79.3253182,9.68040196 79.5796357,10.3967894 79.55,11.13 C79.576276,11.8662732 79.3143897,12.5837698 78.82,13.13 C78.3439596,13.5990862 77.6981496,13.8552454 77.03,13.84 C76.3925115,13.868339 75.7699825,13.6416377 75.3,13.21 C74.7836633,12.6740448 74.5028514,11.9540144 74.52,11.21 C74.4975045,10.4725188 74.762901,9.75523121 75.26,9.21 C75.7005957,8.70773798 76.332017,8.41380049 77,8.4 C77.6893576,8.36988572 78.3587874,8.63547472 78.84,9.13 Z M75.68,11.13 C75.68,12.2 76.19,12.92 77.04,12.92 C77.89,12.92 78.39,12.18 78.39,11.13 C78.39,10.08 77.88,9.32 77,9.32 C76.12,9.32 75.68,10.05 75.68,11.11 L75.68,11.13 Z" id="Shape" fill="#00427A" fill-rule="nonzero"></path>
            <path d="M81.68,13.82 C81.3867206,13.8445721 81.0975082,13.7387048 80.8894017,13.5305983 C80.6812952,13.3224918 80.5754279,13.0332794 80.6,12.74 L80.6,6 L81.74,6 L81.74,12.28 C81.74,12.7 81.83,12.83 82.11,12.83 C82.2226847,12.8471477 82.3373153,12.8471477 82.45,12.83 L82.59,13.67 C82.3043197,13.7964432 81.9911487,13.8480648 81.68,13.82 Z" id="Shape" fill="#00427A" fill-rule="nonzero"></path>
            <path d="M84.52,13.82 C84.2267206,13.8445721 83.9375082,13.7387048 83.7294017,13.5305983 C83.5212952,13.3224918 83.4154279,13.0332794 83.44,12.74 L83.44,6 L84.58,6 L84.58,12.28 C84.58,12.7 84.67,12.83 84.95,12.83 C85.0626847,12.8471477 85.1773153,12.8471477 85.29,12.83 L85.43,13.67 C85.1443197,13.7964432 84.8311487,13.8480648 84.52,13.82 Z" id="Shape" fill="#00427A" fill-rule="nonzero"></path>
            <path d="M87.2,11.39 C87.1938472,11.7975942 87.3572221,12.1894422 87.6510994,12.4719436 C87.9449767,12.754445 88.342966,12.902231 88.75,12.88 C89.2073268,12.8755212 89.655515,12.7514076 90.05,12.52 L90.35,13.26 C89.8173027,13.6256638 89.1861235,13.8209458 88.54,13.82 C87.8242708,13.8413031 87.1342648,13.5522116 86.6474716,13.0270883 C86.1606785,12.501965 85.9246137,11.7920667 86,11.08 C85.9244173,10.4142423 86.1294079,9.74707112 86.5657729,9.23861105 C87.0021379,8.73015098 87.6304822,8.42630581 88.3,8.4 C89.68,8.4 90.53,9.46 90.53,11.07 L90.53,11.39 L87.2,11.39 Z M88.27,9.29 C87.9583174,9.31032024 87.6679997,9.45547513 87.4647287,9.69262459 C87.2614577,9.92977405 87.1624121,10.2388765 87.19,10.55 L89.35,10.55 C89.3804541,10.2382632 89.2824352,9.92759181 89.0785937,9.6897768 C88.8747523,9.4519618 88.582727,9.30758159 88.27,9.29 Z" id="Shape" fill="#00427A" fill-rule="nonzero"></path>
            <path d="M93.52,16.3 C91.97,16.3 91.08,15.59 91.08,14.76 C91.1243375,14.1772475 91.5211936,13.6811773 92.08,13.51 C91.852696,13.369358 91.7189047,13.1170659 91.73,12.85 C91.759197,12.4321687 91.9957228,12.0567308 92.36,11.85 C91.7945667,11.5241423 91.4558607,10.9121621 91.48,10.26 C91.4843015,9.72827298 91.7077923,9.22187826 92.0977207,8.8603427 C92.4876491,8.49880714 93.0094644,8.31416562 93.54,8.35 C93.8858937,8.33223173 94.2304731,8.40459341 94.54,8.56 C94.5774224,8.59200877 94.6325776,8.59200877 94.67,8.56 C95.1019719,8.19626538 95.6776791,8.05233857 96.23,8.17 L95.97,9.06 C95.732676,8.98352096 95.477324,8.98352096 95.24,9.06 C95.58552,9.41178566 95.776306,9.88695087 95.77,10.38 C95.7584708,10.913255 95.5256369,11.4176824 95.1272981,11.7723936 C94.7289593,12.1271048 94.2010188,12.300129 93.67,12.25 C93.4391142,12.2587357 93.2085959,12.224836 92.99,12.15 C92.8695124,12.2810143 92.8018247,12.452015 92.8,12.63 C92.8,13.4 96.36,12.63 96.36,14.56 C96.28,15.47 95.43,16.3 93.52,16.3 Z M92.63,13.82 C92.3407109,13.9756717 92.1463328,14.2635008 92.11,14.59 C92.11,15.06 92.69,15.47 93.62,15.47 C94.55,15.47 95,15.17 95,14.7 C95,13.95 93.25,14 92.63,13.82 Z M92.54,10.3 C92.5205529,10.5771218 92.6172604,10.8498443 92.8069458,11.0528077 C92.9966312,11.255771 93.2621975,11.3706815 93.54,11.37 C94.0922847,11.37 94.54,10.9222847 94.54,10.37 C94.5537058,10.0962314 94.4544311,9.82883856 94.2653888,9.63034405 C94.0763464,9.43184953 93.8141113,9.31965714 93.54,9.32 C93.272524,9.29937571 93.009171,9.39525983 92.8175691,9.58302967 C92.6259672,9.77079951 92.5247829,10.0321619 92.54,10.3 Z" id="Shape" fill="#00427A" fill-rule="nonzero"></path>
            <path d="M97.75,11.39 C97.7438472,11.7975942 97.9072221,12.1894422 98.2010994,12.4719436 C98.4949767,12.754445 98.892966,12.902231 99.3,12.88 C99.7573268,12.8755212 100.205515,12.7514076 100.6,12.52 L100.9,13.26 C100.367303,13.6256638 99.7361235,13.8209458 99.09,13.82 C98.3777111,13.8354351 97.6931876,13.5437884 97.2108974,13.0193936 C96.7286073,12.4949988 96.4951398,11.7885123 96.57,11.08 C96.4946017,10.41921 96.6956267,9.75663615 97.1254831,9.24914054 C97.5553395,8.74164492 98.1758099,8.43434753 98.84,8.4 C100.22,8.4 101.07,9.46 101.07,11.07 L101.07,11.39 L97.75,11.39 Z M98.82,9.29 C98.5083174,9.31032024 98.2179997,9.45547513 98.0147287,9.69262459 C97.8114577,9.92977405 97.7124121,10.2388765 97.74,10.55 L99.9,10.55 C99.9304541,10.2382632 99.8324352,9.92759181 99.6285937,9.6897768 C99.4247523,9.4519618 99.132727,9.30758159 98.82,9.29 Z" id="Shape" fill="#00427A" fill-rule="nonzero"></path>
            <path d="M106.86,13.71 L104.92,13.71 L104.92,6.5 L106.92,6.5 C109.58,6.5 110.92,7.97 110.92,10.03 C110.92,12.09 109.47,13.71 106.86,13.71 Z M106.91,7.5 L106.07,7.5 L106.07,12.73 L106.91,12.73 C107.648365,12.8171581 108.386711,12.5670822 108.92014,12.0491707 C109.45357,11.5312592 109.725328,10.8006156 109.66,10.06 C109.704374,9.33509548 109.423521,8.62810103 108.893807,8.13125239 C108.364093,7.63440375 107.640582,7.39934869 106.92,7.49 L106.91,7.5 Z" id="Shape" fill="#00427A" fill-rule="nonzero"></path>
            <path d="M115.47,13.71 L115.26,13.2 C114.809484,13.5903618 114.236023,13.8098343 113.64,13.82 C112.95,13.82 111.94,13.47 111.94,11.87 L111.94,8.53 L113.08,8.53 L113.08,11.79 C113.08,12.51 113.41,12.88 114.08,12.88 C114.508396,12.862313 114.913332,12.6795541 115.21,12.37 L115.21,8.53 L116.35,8.53 L116.35,12 C116.310085,12.5652873 116.343699,13.1333645 116.45,13.69 L115.47,13.71 Z" id="Shape" fill="#00427A" fill-rule="nonzero"></path>
            <path d="M119.29,13.82 C118.732641,13.8383401 118.179442,13.7180794 117.68,13.47 L117.68,6 L118.82,6 L118.82,8.59 C119.156648,8.46741549 119.511742,8.40316045 119.87,8.4 C120.537999,8.37453855 121.184757,8.63721704 121.645829,9.12124624 C122.1069,9.60527545 122.337866,10.2640251 122.28,10.93 C122.301082,11.7203992 121.98937,12.4833422 121.420848,13.0328497 C120.852326,13.5823572 120.079225,13.8679462 119.29,13.82 Z M119.66,9.4 C119.36907,9.39748276 119.081526,9.46252248 118.82,9.59 L118.82,12.77 C119.044964,12.8470738 119.282453,12.8810007 119.52,12.87 C119.986835,12.8475028 120.424118,12.6349043 120.730146,12.2816502 C121.036173,11.9283962 121.184273,11.4652754 121.14,11 C121.173588,10.5871373 121.032618,10.1790935 120.751341,9.87500984 C120.470063,9.57092621 120.074225,9.39863598 119.66,9.4 Z" id="Shape" fill="#00427A" fill-rule="nonzero"></path>
            <path d="M124.41,13.82 C124.116721,13.8445721 123.827508,13.7387048 123.619402,13.5305983 C123.411295,13.3224918 123.305428,13.0332794 123.33,12.74 L123.33,6 L124.47,6 L124.47,12.28 C124.47,12.7 124.56,12.83 124.84,12.83 C124.952685,12.8471477 125.067315,12.8471477 125.18,12.83 L125.32,13.67 C125.03432,13.7964432 124.721149,13.8480648 124.41,13.82 Z" id="Shape" fill="#00427A" fill-rule="nonzero"></path>
            <path d="M127.61,6.92 C127.618137,7.21784803 127.44444,7.49074789 127.171158,7.6094766 C126.897875,7.7282053 126.579864,7.6689306 126.367707,7.45972013 C126.155549,7.25050966 126.091833,6.93335794 126.206728,6.65844203 C126.321623,6.38352611 126.592067,6.20602949 126.89,6.21 C127.08003,6.20732325 127.263201,6.28094325 127.398523,6.41438531 C127.533844,6.54782737 127.610019,6.72995081 127.61,6.92 Z M126.32,13.7 L126.32,8.53 L127.46,8.53 L127.46,13.71 L126.32,13.7 Z" id="Shape" fill="#00427A" fill-rule="nonzero"></path>
            <path d="M132.27,13.71 L132.27,10.61 C132.27,10.05 132.16,9.42 131.46,9.42 C130.922539,9.44634711 130.409024,9.650346 130,10 L130,13.67 L128.86,13.67 L128.86,8.53 L129.86,8.53 L129.99,9.11 C130.50286,8.66781954 131.153049,8.41693153 131.83,8.4 C132.6,8.4 133.41,8.9 133.41,10.25 L133.41,13.71 L132.27,13.71 Z" id="Shape" fill="#00427A" fill-rule="nonzero"></path>
        </g>
    </g>
</svg>